%TF.GenerationSoftware,KiCad,Pcbnew,(6.0.7)*%
%TF.CreationDate,2022-08-03T23:31:13+02:00*%
%TF.ProjectId,rj45-pinheader-breakout,726a3435-2d70-4696-9e68-65616465722d,rev?*%
%TF.SameCoordinates,Original*%
%TF.FileFunction,Copper,L1,Top*%
%TF.FilePolarity,Positive*%
%FSLAX46Y46*%
G04 Gerber Fmt 4.6, Leading zero omitted, Abs format (unit mm)*
G04 Created by KiCad (PCBNEW (6.0.7)) date 2022-08-03 23:31:13*
%MOMM*%
%LPD*%
G01*
G04 APERTURE LIST*
G04 Aperture macros list*
%AMRoundRect*
0 Rectangle with rounded corners*
0 $1 Rounding radius*
0 $2 $3 $4 $5 $6 $7 $8 $9 X,Y pos of 4 corners*
0 Add a 4 corners polygon primitive as box body*
4,1,4,$2,$3,$4,$5,$6,$7,$8,$9,$2,$3,0*
0 Add four circle primitives for the rounded corners*
1,1,$1+$1,$2,$3*
1,1,$1+$1,$4,$5*
1,1,$1+$1,$6,$7*
1,1,$1+$1,$8,$9*
0 Add four rect primitives between the rounded corners*
20,1,$1+$1,$2,$3,$4,$5,0*
20,1,$1+$1,$4,$5,$6,$7,0*
20,1,$1+$1,$6,$7,$8,$9,0*
20,1,$1+$1,$8,$9,$2,$3,0*%
G04 Aperture macros list end*
%TA.AperFunction,ComponentPad*%
%ADD10R,1.700000X1.700000*%
%TD*%
%TA.AperFunction,ComponentPad*%
%ADD11O,1.700000X1.700000*%
%TD*%
%TA.AperFunction,ComponentPad*%
%ADD12RoundRect,0.250500X0.499500X0.499500X-0.499500X0.499500X-0.499500X-0.499500X0.499500X-0.499500X0*%
%TD*%
%TA.AperFunction,ComponentPad*%
%ADD13C,1.500000*%
%TD*%
%TA.AperFunction,ComponentPad*%
%ADD14C,2.500000*%
%TD*%
%TA.AperFunction,ComponentPad*%
%ADD15O,2.500000X4.000000*%
%TD*%
%TA.AperFunction,Conductor*%
%ADD16C,0.250000*%
%TD*%
G04 APERTURE END LIST*
D10*
X153160000Y-97500000D03*
D11*
X150620000Y-97500000D03*
X148080000Y-97500000D03*
X145540000Y-97500000D03*
X143000000Y-97500000D03*
X140460000Y-97500000D03*
X137920000Y-97500000D03*
X135380000Y-97500000D03*
X132840000Y-97500000D03*
D12*
X137445000Y-82400000D03*
D13*
X136185000Y-84940000D03*
X134905000Y-82400000D03*
X133645000Y-84940000D03*
X132365000Y-82400000D03*
X131105000Y-84940000D03*
X129825000Y-82400000D03*
X128565000Y-84940000D03*
D14*
X140850000Y-79098000D03*
D15*
X125150000Y-72240000D03*
D14*
X125150000Y-79098000D03*
D15*
X140850000Y-72240000D03*
D12*
X157445000Y-82400000D03*
D13*
X156185000Y-84940000D03*
X154905000Y-82400000D03*
X153645000Y-84940000D03*
X152365000Y-82400000D03*
X151105000Y-84940000D03*
X149825000Y-82400000D03*
X148565000Y-84940000D03*
D15*
X145150000Y-72240000D03*
D14*
X145150000Y-79098000D03*
D15*
X160850000Y-72240000D03*
D14*
X160850000Y-79098000D03*
D16*
X148660000Y-93000000D02*
X146500000Y-93000000D01*
X146500000Y-93000000D02*
X137445000Y-83945000D01*
X137445000Y-83945000D02*
X137445000Y-82400000D01*
X153160000Y-97500000D02*
X148660000Y-93000000D01*
X145245000Y-94000000D02*
X136185000Y-84940000D01*
X150620000Y-97500000D02*
X147120000Y-94000000D01*
X147120000Y-94000000D02*
X145245000Y-94000000D01*
X145330000Y-94750000D02*
X144250000Y-94750000D01*
X134905000Y-85405000D02*
X134905000Y-82400000D01*
X144250000Y-94750000D02*
X134905000Y-85405000D01*
X148080000Y-97500000D02*
X145330000Y-94750000D01*
X143790000Y-95750000D02*
X143250000Y-95750000D01*
X133645000Y-86145000D02*
X133645000Y-84940000D01*
X143250000Y-95750000D02*
X133645000Y-86145000D01*
X145540000Y-97500000D02*
X143790000Y-95750000D01*
X132365000Y-86865000D02*
X143000000Y-97500000D01*
X132365000Y-82400000D02*
X132365000Y-86865000D01*
X131105000Y-84940000D02*
X131105000Y-88145000D01*
X131105000Y-88145000D02*
X140460000Y-97500000D01*
X129825000Y-89405000D02*
X137920000Y-97500000D01*
X129825000Y-82400000D02*
X129825000Y-89405000D01*
X128565000Y-84940000D02*
X128565000Y-90685000D01*
X128565000Y-90685000D02*
X135380000Y-97500000D01*
M02*
