%TF.GenerationSoftware,KiCad,Pcbnew,(6.0.7)*%
%TF.CreationDate,2022-08-03T23:31:26+02:00*%
%TF.ProjectId,rj45-pinheader-breakout,726a3435-2d70-4696-9e68-65616465722d,rev?*%
%TF.SameCoordinates,Original*%
%TF.FileFunction,Drillmap*%
%TF.FilePolarity,Positive*%
%FSLAX45Y45*%
G04 Gerber Fmt 4.5, Leading zero omitted, Abs format (unit mm)*
G04 Created by KiCad (PCBNEW (6.0.7)) date 2022-08-03 23:31:26*
%MOMM*%
%LPD*%
G01*
G04 APERTURE LIST*
%ADD10C,0.100000*%
%ADD11C,0.200000*%
%ADD12C,0.090000*%
%ADD13C,0.160000*%
G04 APERTURE END LIST*
D10*
X16300000Y-6650000D02*
X16300000Y-9850000D01*
X12450000Y-10000000D02*
X16150000Y-10000000D01*
X16300000Y-6650000D02*
G75*
G03*
X16150000Y-6500000I-150000J0D01*
G01*
X16150000Y-10000000D02*
G75*
G03*
X16300000Y-9850000I0J150000D01*
G01*
X12300000Y-9850000D02*
G75*
G03*
X12450000Y-10000000I150000J0D01*
G01*
X12450000Y-6500000D02*
G75*
G03*
X12300000Y-6650000I0J-150000D01*
G01*
X12300000Y-6650000D02*
X12300000Y-9850000D01*
X12450000Y-6500000D02*
X16150000Y-6500000D01*
D11*
D12*
X12811500Y-8449000D02*
X12901500Y-8539000D01*
X12901500Y-8449000D02*
X12811500Y-8539000D01*
X12937500Y-8195000D02*
X13027500Y-8285000D01*
X13027500Y-8195000D02*
X12937500Y-8285000D01*
X13065500Y-8449000D02*
X13155500Y-8539000D01*
X13155500Y-8449000D02*
X13065500Y-8539000D01*
X13191500Y-8195000D02*
X13281500Y-8285000D01*
X13281500Y-8195000D02*
X13191500Y-8285000D01*
X13319500Y-8449000D02*
X13409500Y-8539000D01*
X13409500Y-8449000D02*
X13319500Y-8539000D01*
X13445500Y-8195000D02*
X13535500Y-8285000D01*
X13535500Y-8195000D02*
X13445500Y-8285000D01*
X13573500Y-8449000D02*
X13663500Y-8539000D01*
X13663500Y-8449000D02*
X13573500Y-8539000D01*
X13699500Y-8195000D02*
X13789500Y-8285000D01*
X13789500Y-8195000D02*
X13699500Y-8285000D01*
X14811500Y-8449000D02*
X14901500Y-8539000D01*
X14901500Y-8449000D02*
X14811500Y-8539000D01*
X14937500Y-8195000D02*
X15027500Y-8285000D01*
X15027500Y-8195000D02*
X14937500Y-8285000D01*
X15065500Y-8449000D02*
X15155500Y-8539000D01*
X15155500Y-8449000D02*
X15065500Y-8539000D01*
X15191500Y-8195000D02*
X15281500Y-8285000D01*
X15281500Y-8195000D02*
X15191500Y-8285000D01*
X15319500Y-8449000D02*
X15409500Y-8539000D01*
X15409500Y-8449000D02*
X15319500Y-8539000D01*
X15445500Y-8195000D02*
X15535500Y-8285000D01*
X15535500Y-8195000D02*
X15445500Y-8285000D01*
X15573500Y-8449000D02*
X15663500Y-8539000D01*
X15663500Y-8449000D02*
X15573500Y-8539000D01*
X15699500Y-8195000D02*
X15789500Y-8285000D01*
X15789500Y-8195000D02*
X15699500Y-8285000D01*
D10*
X13334000Y-9750000D02*
G75*
G03*
X13334000Y-9750000I-50000J0D01*
G01*
X13588000Y-9750000D02*
G75*
G03*
X13588000Y-9750000I-50000J0D01*
G01*
X13842000Y-9750000D02*
G75*
G03*
X13842000Y-9750000I-50000J0D01*
G01*
X14096000Y-9750000D02*
G75*
G03*
X14096000Y-9750000I-50000J0D01*
G01*
X14350000Y-9750000D02*
G75*
G03*
X14350000Y-9750000I-50000J0D01*
G01*
X14604000Y-9750000D02*
G75*
G03*
X14604000Y-9750000I-50000J0D01*
G01*
X14858000Y-9750000D02*
G75*
G03*
X14858000Y-9750000I-50000J0D01*
G01*
X15112000Y-9750000D02*
G75*
G03*
X15112000Y-9750000I-50000J0D01*
G01*
X15366000Y-9750000D02*
G75*
G03*
X15366000Y-9750000I-50000J0D01*
G01*
D13*
X12515000Y-7144000D02*
X12515000Y-7304000D01*
X12435000Y-7224000D02*
X12595000Y-7224000D01*
D11*
X12595000Y-7299000D02*
X12595000Y-7149000D01*
X12435000Y-7299000D02*
X12435000Y-7149000D01*
X12595000Y-7149000D02*
G75*
G03*
X12435000Y-7149000I-80000J0D01*
G01*
X12435000Y-7299000D02*
G75*
G03*
X12595000Y-7299000I80000J0D01*
G01*
D13*
X12515000Y-7829800D02*
X12515000Y-7989800D01*
X12435000Y-7909800D02*
X12595000Y-7909800D01*
X14085000Y-7144000D02*
X14085000Y-7304000D01*
X14005000Y-7224000D02*
X14165000Y-7224000D01*
D11*
X14165000Y-7299000D02*
X14165000Y-7149000D01*
X14005000Y-7299000D02*
X14005000Y-7149000D01*
X14165000Y-7149000D02*
G75*
G03*
X14005000Y-7149000I-80000J0D01*
G01*
X14005000Y-7299000D02*
G75*
G03*
X14165000Y-7299000I80000J0D01*
G01*
D13*
X14085000Y-7829800D02*
X14085000Y-7989800D01*
X14005000Y-7909800D02*
X14165000Y-7909800D01*
X14515000Y-7144000D02*
X14515000Y-7304000D01*
X14435000Y-7224000D02*
X14595000Y-7224000D01*
D11*
X14595000Y-7299000D02*
X14595000Y-7149000D01*
X14435000Y-7299000D02*
X14435000Y-7149000D01*
X14595000Y-7149000D02*
G75*
G03*
X14435000Y-7149000I-80000J0D01*
G01*
X14435000Y-7299000D02*
G75*
G03*
X14595000Y-7299000I80000J0D01*
G01*
D13*
X14515000Y-7829800D02*
X14515000Y-7989800D01*
X14435000Y-7909800D02*
X14595000Y-7909800D01*
X16085000Y-7144000D02*
X16085000Y-7304000D01*
X16005000Y-7224000D02*
X16165000Y-7224000D01*
D11*
X16165000Y-7299000D02*
X16165000Y-7149000D01*
X16005000Y-7299000D02*
X16005000Y-7149000D01*
X16165000Y-7149000D02*
G75*
G03*
X16005000Y-7149000I-80000J0D01*
G01*
X16005000Y-7299000D02*
G75*
G03*
X16165000Y-7299000I80000J0D01*
G01*
D13*
X16085000Y-7829800D02*
X16085000Y-7989800D01*
X16005000Y-7909800D02*
X16165000Y-7909800D01*
D11*
X12552619Y-10315476D02*
X12552619Y-10115476D01*
X12600238Y-10115476D01*
X12628809Y-10125000D01*
X12647857Y-10144048D01*
X12657381Y-10163095D01*
X12666905Y-10201190D01*
X12666905Y-10229762D01*
X12657381Y-10267857D01*
X12647857Y-10286905D01*
X12628809Y-10305952D01*
X12600238Y-10315476D01*
X12552619Y-10315476D01*
X12752619Y-10315476D02*
X12752619Y-10182143D01*
X12752619Y-10220238D02*
X12762143Y-10201190D01*
X12771667Y-10191667D01*
X12790714Y-10182143D01*
X12809762Y-10182143D01*
X12876428Y-10315476D02*
X12876428Y-10182143D01*
X12876428Y-10115476D02*
X12866905Y-10125000D01*
X12876428Y-10134524D01*
X12885952Y-10125000D01*
X12876428Y-10115476D01*
X12876428Y-10134524D01*
X13000238Y-10315476D02*
X12981190Y-10305952D01*
X12971667Y-10286905D01*
X12971667Y-10115476D01*
X13105000Y-10315476D02*
X13085952Y-10305952D01*
X13076428Y-10286905D01*
X13076428Y-10115476D01*
X13333571Y-10315476D02*
X13333571Y-10115476D01*
X13400238Y-10258333D01*
X13466905Y-10115476D01*
X13466905Y-10315476D01*
X13647857Y-10315476D02*
X13647857Y-10210714D01*
X13638333Y-10191667D01*
X13619286Y-10182143D01*
X13581190Y-10182143D01*
X13562143Y-10191667D01*
X13647857Y-10305952D02*
X13628809Y-10315476D01*
X13581190Y-10315476D01*
X13562143Y-10305952D01*
X13552619Y-10286905D01*
X13552619Y-10267857D01*
X13562143Y-10248810D01*
X13581190Y-10239286D01*
X13628809Y-10239286D01*
X13647857Y-10229762D01*
X13743095Y-10182143D02*
X13743095Y-10382143D01*
X13743095Y-10191667D02*
X13762143Y-10182143D01*
X13800238Y-10182143D01*
X13819286Y-10191667D01*
X13828809Y-10201190D01*
X13838333Y-10220238D01*
X13838333Y-10277381D01*
X13828809Y-10296429D01*
X13819286Y-10305952D01*
X13800238Y-10315476D01*
X13762143Y-10315476D01*
X13743095Y-10305952D01*
X13924048Y-10296429D02*
X13933571Y-10305952D01*
X13924048Y-10315476D01*
X13914524Y-10305952D01*
X13924048Y-10296429D01*
X13924048Y-10315476D01*
X13924048Y-10191667D02*
X13933571Y-10201190D01*
X13924048Y-10210714D01*
X13914524Y-10201190D01*
X13924048Y-10191667D01*
X13924048Y-10210714D01*
D12*
X12205000Y-10600000D02*
X12295000Y-10690000D01*
X12295000Y-10600000D02*
X12205000Y-10690000D01*
D11*
X12590714Y-10535476D02*
X12609762Y-10535476D01*
X12628809Y-10545000D01*
X12638333Y-10554524D01*
X12647857Y-10573571D01*
X12657381Y-10611667D01*
X12657381Y-10659286D01*
X12647857Y-10697381D01*
X12638333Y-10716429D01*
X12628809Y-10725952D01*
X12609762Y-10735476D01*
X12590714Y-10735476D01*
X12571667Y-10725952D01*
X12562143Y-10716429D01*
X12552619Y-10697381D01*
X12543095Y-10659286D01*
X12543095Y-10611667D01*
X12552619Y-10573571D01*
X12562143Y-10554524D01*
X12571667Y-10545000D01*
X12590714Y-10535476D01*
X12743095Y-10716429D02*
X12752619Y-10725952D01*
X12743095Y-10735476D01*
X12733571Y-10725952D01*
X12743095Y-10716429D01*
X12743095Y-10735476D01*
X12847857Y-10735476D02*
X12885952Y-10735476D01*
X12905000Y-10725952D01*
X12914524Y-10716429D01*
X12933571Y-10687857D01*
X12943095Y-10649762D01*
X12943095Y-10573571D01*
X12933571Y-10554524D01*
X12924048Y-10545000D01*
X12905000Y-10535476D01*
X12866905Y-10535476D01*
X12847857Y-10545000D01*
X12838333Y-10554524D01*
X12828809Y-10573571D01*
X12828809Y-10621190D01*
X12838333Y-10640238D01*
X12847857Y-10649762D01*
X12866905Y-10659286D01*
X12905000Y-10659286D01*
X12924048Y-10649762D01*
X12933571Y-10640238D01*
X12943095Y-10621190D01*
X13066905Y-10535476D02*
X13085952Y-10535476D01*
X13105000Y-10545000D01*
X13114524Y-10554524D01*
X13124048Y-10573571D01*
X13133571Y-10611667D01*
X13133571Y-10659286D01*
X13124048Y-10697381D01*
X13114524Y-10716429D01*
X13105000Y-10725952D01*
X13085952Y-10735476D01*
X13066905Y-10735476D01*
X13047857Y-10725952D01*
X13038333Y-10716429D01*
X13028809Y-10697381D01*
X13019286Y-10659286D01*
X13019286Y-10611667D01*
X13028809Y-10573571D01*
X13038333Y-10554524D01*
X13047857Y-10545000D01*
X13066905Y-10535476D01*
X13257381Y-10535476D02*
X13276428Y-10535476D01*
X13295476Y-10545000D01*
X13305000Y-10554524D01*
X13314524Y-10573571D01*
X13324048Y-10611667D01*
X13324048Y-10659286D01*
X13314524Y-10697381D01*
X13305000Y-10716429D01*
X13295476Y-10725952D01*
X13276428Y-10735476D01*
X13257381Y-10735476D01*
X13238333Y-10725952D01*
X13228809Y-10716429D01*
X13219286Y-10697381D01*
X13209762Y-10659286D01*
X13209762Y-10611667D01*
X13219286Y-10573571D01*
X13228809Y-10554524D01*
X13238333Y-10545000D01*
X13257381Y-10535476D01*
X13409762Y-10735476D02*
X13409762Y-10602143D01*
X13409762Y-10621190D02*
X13419286Y-10611667D01*
X13438333Y-10602143D01*
X13466905Y-10602143D01*
X13485952Y-10611667D01*
X13495476Y-10630714D01*
X13495476Y-10735476D01*
X13495476Y-10630714D02*
X13505000Y-10611667D01*
X13524048Y-10602143D01*
X13552619Y-10602143D01*
X13571667Y-10611667D01*
X13581190Y-10630714D01*
X13581190Y-10735476D01*
X13676428Y-10735476D02*
X13676428Y-10602143D01*
X13676428Y-10621190D02*
X13685952Y-10611667D01*
X13705000Y-10602143D01*
X13733571Y-10602143D01*
X13752619Y-10611667D01*
X13762143Y-10630714D01*
X13762143Y-10735476D01*
X13762143Y-10630714D02*
X13771667Y-10611667D01*
X13790714Y-10602143D01*
X13819286Y-10602143D01*
X13838333Y-10611667D01*
X13847857Y-10630714D01*
X13847857Y-10735476D01*
X14238333Y-10525952D02*
X14066905Y-10783095D01*
X14495476Y-10535476D02*
X14514524Y-10535476D01*
X14533571Y-10545000D01*
X14543095Y-10554524D01*
X14552619Y-10573571D01*
X14562143Y-10611667D01*
X14562143Y-10659286D01*
X14552619Y-10697381D01*
X14543095Y-10716429D01*
X14533571Y-10725952D01*
X14514524Y-10735476D01*
X14495476Y-10735476D01*
X14476428Y-10725952D01*
X14466905Y-10716429D01*
X14457381Y-10697381D01*
X14447857Y-10659286D01*
X14447857Y-10611667D01*
X14457381Y-10573571D01*
X14466905Y-10554524D01*
X14476428Y-10545000D01*
X14495476Y-10535476D01*
X14647857Y-10716429D02*
X14657381Y-10725952D01*
X14647857Y-10735476D01*
X14638333Y-10725952D01*
X14647857Y-10716429D01*
X14647857Y-10735476D01*
X14781190Y-10535476D02*
X14800238Y-10535476D01*
X14819286Y-10545000D01*
X14828809Y-10554524D01*
X14838333Y-10573571D01*
X14847857Y-10611667D01*
X14847857Y-10659286D01*
X14838333Y-10697381D01*
X14828809Y-10716429D01*
X14819286Y-10725952D01*
X14800238Y-10735476D01*
X14781190Y-10735476D01*
X14762143Y-10725952D01*
X14752619Y-10716429D01*
X14743095Y-10697381D01*
X14733571Y-10659286D01*
X14733571Y-10611667D01*
X14743095Y-10573571D01*
X14752619Y-10554524D01*
X14762143Y-10545000D01*
X14781190Y-10535476D01*
X14914524Y-10535476D02*
X15038333Y-10535476D01*
X14971667Y-10611667D01*
X15000238Y-10611667D01*
X15019286Y-10621190D01*
X15028809Y-10630714D01*
X15038333Y-10649762D01*
X15038333Y-10697381D01*
X15028809Y-10716429D01*
X15019286Y-10725952D01*
X15000238Y-10735476D01*
X14943095Y-10735476D01*
X14924048Y-10725952D01*
X14914524Y-10716429D01*
X15219286Y-10535476D02*
X15124048Y-10535476D01*
X15114524Y-10630714D01*
X15124048Y-10621190D01*
X15143095Y-10611667D01*
X15190714Y-10611667D01*
X15209762Y-10621190D01*
X15219286Y-10630714D01*
X15228809Y-10649762D01*
X15228809Y-10697381D01*
X15219286Y-10716429D01*
X15209762Y-10725952D01*
X15190714Y-10735476D01*
X15143095Y-10735476D01*
X15124048Y-10725952D01*
X15114524Y-10716429D01*
X15400238Y-10602143D02*
X15400238Y-10735476D01*
X15352619Y-10525952D02*
X15305000Y-10668810D01*
X15428809Y-10668810D01*
X15495476Y-10535476D02*
X15495476Y-10573571D01*
X15571667Y-10535476D02*
X15571667Y-10573571D01*
X15866905Y-10811667D02*
X15857381Y-10802143D01*
X15838333Y-10773571D01*
X15828809Y-10754524D01*
X15819286Y-10725952D01*
X15809762Y-10678333D01*
X15809762Y-10640238D01*
X15819286Y-10592619D01*
X15828809Y-10564048D01*
X15838333Y-10545000D01*
X15857381Y-10516429D01*
X15866905Y-10506905D01*
X16047857Y-10735476D02*
X15933571Y-10735476D01*
X15990714Y-10735476D02*
X15990714Y-10535476D01*
X15971667Y-10564048D01*
X15952619Y-10583095D01*
X15933571Y-10592619D01*
X16219286Y-10535476D02*
X16181190Y-10535476D01*
X16162143Y-10545000D01*
X16152619Y-10554524D01*
X16133571Y-10583095D01*
X16124048Y-10621190D01*
X16124048Y-10697381D01*
X16133571Y-10716429D01*
X16143095Y-10725952D01*
X16162143Y-10735476D01*
X16200238Y-10735476D01*
X16219286Y-10725952D01*
X16228809Y-10716429D01*
X16238333Y-10697381D01*
X16238333Y-10649762D01*
X16228809Y-10630714D01*
X16219286Y-10621190D01*
X16200238Y-10611667D01*
X16162143Y-10611667D01*
X16143095Y-10621190D01*
X16133571Y-10630714D01*
X16124048Y-10649762D01*
X16476428Y-10735476D02*
X16476428Y-10535476D01*
X16562143Y-10735476D02*
X16562143Y-10630714D01*
X16552619Y-10611667D01*
X16533571Y-10602143D01*
X16505000Y-10602143D01*
X16485952Y-10611667D01*
X16476428Y-10621190D01*
X16685952Y-10735476D02*
X16666905Y-10725952D01*
X16657381Y-10716429D01*
X16647857Y-10697381D01*
X16647857Y-10640238D01*
X16657381Y-10621190D01*
X16666905Y-10611667D01*
X16685952Y-10602143D01*
X16714524Y-10602143D01*
X16733571Y-10611667D01*
X16743095Y-10621190D01*
X16752619Y-10640238D01*
X16752619Y-10697381D01*
X16743095Y-10716429D01*
X16733571Y-10725952D01*
X16714524Y-10735476D01*
X16685952Y-10735476D01*
X16866905Y-10735476D02*
X16847857Y-10725952D01*
X16838333Y-10706905D01*
X16838333Y-10535476D01*
X17019286Y-10725952D02*
X17000238Y-10735476D01*
X16962143Y-10735476D01*
X16943095Y-10725952D01*
X16933571Y-10706905D01*
X16933571Y-10630714D01*
X16943095Y-10611667D01*
X16962143Y-10602143D01*
X17000238Y-10602143D01*
X17019286Y-10611667D01*
X17028810Y-10630714D01*
X17028810Y-10649762D01*
X16933571Y-10668810D01*
X17105000Y-10725952D02*
X17124048Y-10735476D01*
X17162143Y-10735476D01*
X17181190Y-10725952D01*
X17190714Y-10706905D01*
X17190714Y-10697381D01*
X17181190Y-10678333D01*
X17162143Y-10668810D01*
X17133571Y-10668810D01*
X17114524Y-10659286D01*
X17105000Y-10640238D01*
X17105000Y-10630714D01*
X17114524Y-10611667D01*
X17133571Y-10602143D01*
X17162143Y-10602143D01*
X17181190Y-10611667D01*
X17257381Y-10811667D02*
X17266905Y-10802143D01*
X17285952Y-10773571D01*
X17295476Y-10754524D01*
X17305000Y-10725952D01*
X17314524Y-10678333D01*
X17314524Y-10640238D01*
X17305000Y-10592619D01*
X17295476Y-10564048D01*
X17285952Y-10545000D01*
X17266905Y-10516429D01*
X17257381Y-10506905D01*
D10*
X12295000Y-10909000D02*
G75*
G03*
X12295000Y-10909000I-50000J0D01*
G01*
D11*
X12657381Y-10999476D02*
X12543095Y-10999476D01*
X12600238Y-10999476D02*
X12600238Y-10799476D01*
X12581190Y-10828048D01*
X12562143Y-10847095D01*
X12543095Y-10856619D01*
X12743095Y-10980429D02*
X12752619Y-10989952D01*
X12743095Y-10999476D01*
X12733571Y-10989952D01*
X12743095Y-10980429D01*
X12743095Y-10999476D01*
X12876428Y-10799476D02*
X12895476Y-10799476D01*
X12914524Y-10809000D01*
X12924048Y-10818524D01*
X12933571Y-10837571D01*
X12943095Y-10875667D01*
X12943095Y-10923286D01*
X12933571Y-10961381D01*
X12924048Y-10980429D01*
X12914524Y-10989952D01*
X12895476Y-10999476D01*
X12876428Y-10999476D01*
X12857381Y-10989952D01*
X12847857Y-10980429D01*
X12838333Y-10961381D01*
X12828809Y-10923286D01*
X12828809Y-10875667D01*
X12838333Y-10837571D01*
X12847857Y-10818524D01*
X12857381Y-10809000D01*
X12876428Y-10799476D01*
X13066905Y-10799476D02*
X13085952Y-10799476D01*
X13105000Y-10809000D01*
X13114524Y-10818524D01*
X13124048Y-10837571D01*
X13133571Y-10875667D01*
X13133571Y-10923286D01*
X13124048Y-10961381D01*
X13114524Y-10980429D01*
X13105000Y-10989952D01*
X13085952Y-10999476D01*
X13066905Y-10999476D01*
X13047857Y-10989952D01*
X13038333Y-10980429D01*
X13028809Y-10961381D01*
X13019286Y-10923286D01*
X13019286Y-10875667D01*
X13028809Y-10837571D01*
X13038333Y-10818524D01*
X13047857Y-10809000D01*
X13066905Y-10799476D01*
X13257381Y-10799476D02*
X13276428Y-10799476D01*
X13295476Y-10809000D01*
X13305000Y-10818524D01*
X13314524Y-10837571D01*
X13324048Y-10875667D01*
X13324048Y-10923286D01*
X13314524Y-10961381D01*
X13305000Y-10980429D01*
X13295476Y-10989952D01*
X13276428Y-10999476D01*
X13257381Y-10999476D01*
X13238333Y-10989952D01*
X13228809Y-10980429D01*
X13219286Y-10961381D01*
X13209762Y-10923286D01*
X13209762Y-10875667D01*
X13219286Y-10837571D01*
X13228809Y-10818524D01*
X13238333Y-10809000D01*
X13257381Y-10799476D01*
X13409762Y-10999476D02*
X13409762Y-10866143D01*
X13409762Y-10885190D02*
X13419286Y-10875667D01*
X13438333Y-10866143D01*
X13466905Y-10866143D01*
X13485952Y-10875667D01*
X13495476Y-10894714D01*
X13495476Y-10999476D01*
X13495476Y-10894714D02*
X13505000Y-10875667D01*
X13524048Y-10866143D01*
X13552619Y-10866143D01*
X13571667Y-10875667D01*
X13581190Y-10894714D01*
X13581190Y-10999476D01*
X13676428Y-10999476D02*
X13676428Y-10866143D01*
X13676428Y-10885190D02*
X13685952Y-10875667D01*
X13705000Y-10866143D01*
X13733571Y-10866143D01*
X13752619Y-10875667D01*
X13762143Y-10894714D01*
X13762143Y-10999476D01*
X13762143Y-10894714D02*
X13771667Y-10875667D01*
X13790714Y-10866143D01*
X13819286Y-10866143D01*
X13838333Y-10875667D01*
X13847857Y-10894714D01*
X13847857Y-10999476D01*
X14238333Y-10789952D02*
X14066905Y-11047095D01*
X14495476Y-10799476D02*
X14514524Y-10799476D01*
X14533571Y-10809000D01*
X14543095Y-10818524D01*
X14552619Y-10837571D01*
X14562143Y-10875667D01*
X14562143Y-10923286D01*
X14552619Y-10961381D01*
X14543095Y-10980429D01*
X14533571Y-10989952D01*
X14514524Y-10999476D01*
X14495476Y-10999476D01*
X14476428Y-10989952D01*
X14466905Y-10980429D01*
X14457381Y-10961381D01*
X14447857Y-10923286D01*
X14447857Y-10875667D01*
X14457381Y-10837571D01*
X14466905Y-10818524D01*
X14476428Y-10809000D01*
X14495476Y-10799476D01*
X14647857Y-10980429D02*
X14657381Y-10989952D01*
X14647857Y-10999476D01*
X14638333Y-10989952D01*
X14647857Y-10980429D01*
X14647857Y-10999476D01*
X14781190Y-10799476D02*
X14800238Y-10799476D01*
X14819286Y-10809000D01*
X14828809Y-10818524D01*
X14838333Y-10837571D01*
X14847857Y-10875667D01*
X14847857Y-10923286D01*
X14838333Y-10961381D01*
X14828809Y-10980429D01*
X14819286Y-10989952D01*
X14800238Y-10999476D01*
X14781190Y-10999476D01*
X14762143Y-10989952D01*
X14752619Y-10980429D01*
X14743095Y-10961381D01*
X14733571Y-10923286D01*
X14733571Y-10875667D01*
X14743095Y-10837571D01*
X14752619Y-10818524D01*
X14762143Y-10809000D01*
X14781190Y-10799476D01*
X14914524Y-10799476D02*
X15038333Y-10799476D01*
X14971667Y-10875667D01*
X15000238Y-10875667D01*
X15019286Y-10885190D01*
X15028809Y-10894714D01*
X15038333Y-10913762D01*
X15038333Y-10961381D01*
X15028809Y-10980429D01*
X15019286Y-10989952D01*
X15000238Y-10999476D01*
X14943095Y-10999476D01*
X14924048Y-10989952D01*
X14914524Y-10980429D01*
X15133571Y-10999476D02*
X15171667Y-10999476D01*
X15190714Y-10989952D01*
X15200238Y-10980429D01*
X15219286Y-10951857D01*
X15228809Y-10913762D01*
X15228809Y-10837571D01*
X15219286Y-10818524D01*
X15209762Y-10809000D01*
X15190714Y-10799476D01*
X15152619Y-10799476D01*
X15133571Y-10809000D01*
X15124048Y-10818524D01*
X15114524Y-10837571D01*
X15114524Y-10885190D01*
X15124048Y-10904238D01*
X15133571Y-10913762D01*
X15152619Y-10923286D01*
X15190714Y-10923286D01*
X15209762Y-10913762D01*
X15219286Y-10904238D01*
X15228809Y-10885190D01*
X15400238Y-10866143D02*
X15400238Y-10999476D01*
X15352619Y-10789952D02*
X15305000Y-10932810D01*
X15428809Y-10932810D01*
X15495476Y-10799476D02*
X15495476Y-10837571D01*
X15571667Y-10799476D02*
X15571667Y-10837571D01*
X15866905Y-11075667D02*
X15857381Y-11066143D01*
X15838333Y-11037571D01*
X15828809Y-11018524D01*
X15819286Y-10989952D01*
X15809762Y-10942333D01*
X15809762Y-10904238D01*
X15819286Y-10856619D01*
X15828809Y-10828048D01*
X15838333Y-10809000D01*
X15857381Y-10780429D01*
X15866905Y-10770905D01*
X15952619Y-10999476D02*
X15990714Y-10999476D01*
X16009762Y-10989952D01*
X16019286Y-10980429D01*
X16038333Y-10951857D01*
X16047857Y-10913762D01*
X16047857Y-10837571D01*
X16038333Y-10818524D01*
X16028809Y-10809000D01*
X16009762Y-10799476D01*
X15971667Y-10799476D01*
X15952619Y-10809000D01*
X15943095Y-10818524D01*
X15933571Y-10837571D01*
X15933571Y-10885190D01*
X15943095Y-10904238D01*
X15952619Y-10913762D01*
X15971667Y-10923286D01*
X16009762Y-10923286D01*
X16028809Y-10913762D01*
X16038333Y-10904238D01*
X16047857Y-10885190D01*
X16285952Y-10999476D02*
X16285952Y-10799476D01*
X16371667Y-10999476D02*
X16371667Y-10894714D01*
X16362143Y-10875667D01*
X16343095Y-10866143D01*
X16314524Y-10866143D01*
X16295476Y-10875667D01*
X16285952Y-10885190D01*
X16495476Y-10999476D02*
X16476428Y-10989952D01*
X16466905Y-10980429D01*
X16457381Y-10961381D01*
X16457381Y-10904238D01*
X16466905Y-10885190D01*
X16476428Y-10875667D01*
X16495476Y-10866143D01*
X16524048Y-10866143D01*
X16543095Y-10875667D01*
X16552619Y-10885190D01*
X16562143Y-10904238D01*
X16562143Y-10961381D01*
X16552619Y-10980429D01*
X16543095Y-10989952D01*
X16524048Y-10999476D01*
X16495476Y-10999476D01*
X16676428Y-10999476D02*
X16657381Y-10989952D01*
X16647857Y-10970905D01*
X16647857Y-10799476D01*
X16828810Y-10989952D02*
X16809762Y-10999476D01*
X16771667Y-10999476D01*
X16752619Y-10989952D01*
X16743095Y-10970905D01*
X16743095Y-10894714D01*
X16752619Y-10875667D01*
X16771667Y-10866143D01*
X16809762Y-10866143D01*
X16828810Y-10875667D01*
X16838333Y-10894714D01*
X16838333Y-10913762D01*
X16743095Y-10932810D01*
X16914524Y-10989952D02*
X16933571Y-10999476D01*
X16971667Y-10999476D01*
X16990714Y-10989952D01*
X17000238Y-10970905D01*
X17000238Y-10961381D01*
X16990714Y-10942333D01*
X16971667Y-10932810D01*
X16943095Y-10932810D01*
X16924048Y-10923286D01*
X16914524Y-10904238D01*
X16914524Y-10894714D01*
X16924048Y-10875667D01*
X16943095Y-10866143D01*
X16971667Y-10866143D01*
X16990714Y-10875667D01*
X17066905Y-11075667D02*
X17076429Y-11066143D01*
X17095476Y-11037571D01*
X17105000Y-11018524D01*
X17114524Y-10989952D01*
X17124048Y-10942333D01*
X17124048Y-10904238D01*
X17114524Y-10856619D01*
X17105000Y-10828048D01*
X17095476Y-10809000D01*
X17076429Y-10780429D01*
X17066905Y-10770905D01*
D13*
X12215000Y-11093000D02*
X12215000Y-11253000D01*
X12135000Y-11173000D02*
X12295000Y-11173000D01*
D11*
X12657381Y-11263476D02*
X12543095Y-11263476D01*
X12600238Y-11263476D02*
X12600238Y-11063476D01*
X12581190Y-11092048D01*
X12562143Y-11111095D01*
X12543095Y-11120619D01*
X12743095Y-11244428D02*
X12752619Y-11253952D01*
X12743095Y-11263476D01*
X12733571Y-11253952D01*
X12743095Y-11244428D01*
X12743095Y-11263476D01*
X12924048Y-11063476D02*
X12885952Y-11063476D01*
X12866905Y-11073000D01*
X12857381Y-11082524D01*
X12838333Y-11111095D01*
X12828809Y-11149190D01*
X12828809Y-11225381D01*
X12838333Y-11244428D01*
X12847857Y-11253952D01*
X12866905Y-11263476D01*
X12905000Y-11263476D01*
X12924048Y-11253952D01*
X12933571Y-11244428D01*
X12943095Y-11225381D01*
X12943095Y-11177762D01*
X12933571Y-11158714D01*
X12924048Y-11149190D01*
X12905000Y-11139667D01*
X12866905Y-11139667D01*
X12847857Y-11149190D01*
X12838333Y-11158714D01*
X12828809Y-11177762D01*
X13066905Y-11063476D02*
X13085952Y-11063476D01*
X13105000Y-11073000D01*
X13114524Y-11082524D01*
X13124048Y-11101571D01*
X13133571Y-11139667D01*
X13133571Y-11187286D01*
X13124048Y-11225381D01*
X13114524Y-11244428D01*
X13105000Y-11253952D01*
X13085952Y-11263476D01*
X13066905Y-11263476D01*
X13047857Y-11253952D01*
X13038333Y-11244428D01*
X13028809Y-11225381D01*
X13019286Y-11187286D01*
X13019286Y-11139667D01*
X13028809Y-11101571D01*
X13038333Y-11082524D01*
X13047857Y-11073000D01*
X13066905Y-11063476D01*
X13257381Y-11063476D02*
X13276428Y-11063476D01*
X13295476Y-11073000D01*
X13305000Y-11082524D01*
X13314524Y-11101571D01*
X13324048Y-11139667D01*
X13324048Y-11187286D01*
X13314524Y-11225381D01*
X13305000Y-11244428D01*
X13295476Y-11253952D01*
X13276428Y-11263476D01*
X13257381Y-11263476D01*
X13238333Y-11253952D01*
X13228809Y-11244428D01*
X13219286Y-11225381D01*
X13209762Y-11187286D01*
X13209762Y-11139667D01*
X13219286Y-11101571D01*
X13228809Y-11082524D01*
X13238333Y-11073000D01*
X13257381Y-11063476D01*
X13409762Y-11263476D02*
X13409762Y-11130143D01*
X13409762Y-11149190D02*
X13419286Y-11139667D01*
X13438333Y-11130143D01*
X13466905Y-11130143D01*
X13485952Y-11139667D01*
X13495476Y-11158714D01*
X13495476Y-11263476D01*
X13495476Y-11158714D02*
X13505000Y-11139667D01*
X13524048Y-11130143D01*
X13552619Y-11130143D01*
X13571667Y-11139667D01*
X13581190Y-11158714D01*
X13581190Y-11263476D01*
X13676428Y-11263476D02*
X13676428Y-11130143D01*
X13676428Y-11149190D02*
X13685952Y-11139667D01*
X13705000Y-11130143D01*
X13733571Y-11130143D01*
X13752619Y-11139667D01*
X13762143Y-11158714D01*
X13762143Y-11263476D01*
X13762143Y-11158714D02*
X13771667Y-11139667D01*
X13790714Y-11130143D01*
X13819286Y-11130143D01*
X13838333Y-11139667D01*
X13847857Y-11158714D01*
X13847857Y-11263476D01*
X14238333Y-11053952D02*
X14066905Y-11311095D01*
X14495476Y-11063476D02*
X14514524Y-11063476D01*
X14533571Y-11073000D01*
X14543095Y-11082524D01*
X14552619Y-11101571D01*
X14562143Y-11139667D01*
X14562143Y-11187286D01*
X14552619Y-11225381D01*
X14543095Y-11244428D01*
X14533571Y-11253952D01*
X14514524Y-11263476D01*
X14495476Y-11263476D01*
X14476428Y-11253952D01*
X14466905Y-11244428D01*
X14457381Y-11225381D01*
X14447857Y-11187286D01*
X14447857Y-11139667D01*
X14457381Y-11101571D01*
X14466905Y-11082524D01*
X14476428Y-11073000D01*
X14495476Y-11063476D01*
X14647857Y-11244428D02*
X14657381Y-11253952D01*
X14647857Y-11263476D01*
X14638333Y-11253952D01*
X14647857Y-11244428D01*
X14647857Y-11263476D01*
X14781190Y-11063476D02*
X14800238Y-11063476D01*
X14819286Y-11073000D01*
X14828809Y-11082524D01*
X14838333Y-11101571D01*
X14847857Y-11139667D01*
X14847857Y-11187286D01*
X14838333Y-11225381D01*
X14828809Y-11244428D01*
X14819286Y-11253952D01*
X14800238Y-11263476D01*
X14781190Y-11263476D01*
X14762143Y-11253952D01*
X14752619Y-11244428D01*
X14743095Y-11225381D01*
X14733571Y-11187286D01*
X14733571Y-11139667D01*
X14743095Y-11101571D01*
X14752619Y-11082524D01*
X14762143Y-11073000D01*
X14781190Y-11063476D01*
X15019286Y-11063476D02*
X14981190Y-11063476D01*
X14962143Y-11073000D01*
X14952619Y-11082524D01*
X14933571Y-11111095D01*
X14924048Y-11149190D01*
X14924048Y-11225381D01*
X14933571Y-11244428D01*
X14943095Y-11253952D01*
X14962143Y-11263476D01*
X15000238Y-11263476D01*
X15019286Y-11253952D01*
X15028809Y-11244428D01*
X15038333Y-11225381D01*
X15038333Y-11177762D01*
X15028809Y-11158714D01*
X15019286Y-11149190D01*
X15000238Y-11139667D01*
X14962143Y-11139667D01*
X14943095Y-11149190D01*
X14933571Y-11158714D01*
X14924048Y-11177762D01*
X15105000Y-11063476D02*
X15228809Y-11063476D01*
X15162143Y-11139667D01*
X15190714Y-11139667D01*
X15209762Y-11149190D01*
X15219286Y-11158714D01*
X15228809Y-11177762D01*
X15228809Y-11225381D01*
X15219286Y-11244428D01*
X15209762Y-11253952D01*
X15190714Y-11263476D01*
X15133571Y-11263476D01*
X15114524Y-11253952D01*
X15105000Y-11244428D01*
X15352619Y-11063476D02*
X15371667Y-11063476D01*
X15390714Y-11073000D01*
X15400238Y-11082524D01*
X15409762Y-11101571D01*
X15419286Y-11139667D01*
X15419286Y-11187286D01*
X15409762Y-11225381D01*
X15400238Y-11244428D01*
X15390714Y-11253952D01*
X15371667Y-11263476D01*
X15352619Y-11263476D01*
X15333571Y-11253952D01*
X15324048Y-11244428D01*
X15314524Y-11225381D01*
X15305000Y-11187286D01*
X15305000Y-11139667D01*
X15314524Y-11101571D01*
X15324048Y-11082524D01*
X15333571Y-11073000D01*
X15352619Y-11063476D01*
X15495476Y-11063476D02*
X15495476Y-11101571D01*
X15571667Y-11063476D02*
X15571667Y-11101571D01*
X15866905Y-11339667D02*
X15857381Y-11330143D01*
X15838333Y-11301571D01*
X15828809Y-11282524D01*
X15819286Y-11253952D01*
X15809762Y-11206333D01*
X15809762Y-11168238D01*
X15819286Y-11120619D01*
X15828809Y-11092048D01*
X15838333Y-11073000D01*
X15857381Y-11044429D01*
X15866905Y-11034905D01*
X16028809Y-11130143D02*
X16028809Y-11263476D01*
X15981190Y-11053952D02*
X15933571Y-11196809D01*
X16057381Y-11196809D01*
X16285952Y-11263476D02*
X16285952Y-11063476D01*
X16371667Y-11263476D02*
X16371667Y-11158714D01*
X16362143Y-11139667D01*
X16343095Y-11130143D01*
X16314524Y-11130143D01*
X16295476Y-11139667D01*
X16285952Y-11149190D01*
X16495476Y-11263476D02*
X16476428Y-11253952D01*
X16466905Y-11244428D01*
X16457381Y-11225381D01*
X16457381Y-11168238D01*
X16466905Y-11149190D01*
X16476428Y-11139667D01*
X16495476Y-11130143D01*
X16524048Y-11130143D01*
X16543095Y-11139667D01*
X16552619Y-11149190D01*
X16562143Y-11168238D01*
X16562143Y-11225381D01*
X16552619Y-11244428D01*
X16543095Y-11253952D01*
X16524048Y-11263476D01*
X16495476Y-11263476D01*
X16676428Y-11263476D02*
X16657381Y-11253952D01*
X16647857Y-11234905D01*
X16647857Y-11063476D01*
X16828810Y-11253952D02*
X16809762Y-11263476D01*
X16771667Y-11263476D01*
X16752619Y-11253952D01*
X16743095Y-11234905D01*
X16743095Y-11158714D01*
X16752619Y-11139667D01*
X16771667Y-11130143D01*
X16809762Y-11130143D01*
X16828810Y-11139667D01*
X16838333Y-11158714D01*
X16838333Y-11177762D01*
X16743095Y-11196809D01*
X16914524Y-11253952D02*
X16933571Y-11263476D01*
X16971667Y-11263476D01*
X16990714Y-11253952D01*
X17000238Y-11234905D01*
X17000238Y-11225381D01*
X16990714Y-11206333D01*
X16971667Y-11196809D01*
X16943095Y-11196809D01*
X16924048Y-11187286D01*
X16914524Y-11168238D01*
X16914524Y-11158714D01*
X16924048Y-11139667D01*
X16943095Y-11130143D01*
X16971667Y-11130143D01*
X16990714Y-11139667D01*
X17238333Y-11187286D02*
X17390714Y-11187286D01*
X17314524Y-11263476D02*
X17314524Y-11111095D01*
X17724048Y-11130143D02*
X17724048Y-11263476D01*
X17676429Y-11053952D02*
X17628810Y-11196809D01*
X17752619Y-11196809D01*
X17971667Y-11253952D02*
X17990714Y-11263476D01*
X18028810Y-11263476D01*
X18047857Y-11253952D01*
X18057381Y-11234905D01*
X18057381Y-11225381D01*
X18047857Y-11206333D01*
X18028810Y-11196809D01*
X18000238Y-11196809D01*
X17981190Y-11187286D01*
X17971667Y-11168238D01*
X17971667Y-11158714D01*
X17981190Y-11139667D01*
X18000238Y-11130143D01*
X18028810Y-11130143D01*
X18047857Y-11139667D01*
X18171667Y-11263476D02*
X18152619Y-11253952D01*
X18143095Y-11234905D01*
X18143095Y-11063476D01*
X18276429Y-11263476D02*
X18257381Y-11253952D01*
X18247857Y-11244428D01*
X18238333Y-11225381D01*
X18238333Y-11168238D01*
X18247857Y-11149190D01*
X18257381Y-11139667D01*
X18276429Y-11130143D01*
X18305000Y-11130143D01*
X18324048Y-11139667D01*
X18333571Y-11149190D01*
X18343095Y-11168238D01*
X18343095Y-11225381D01*
X18333571Y-11244428D01*
X18324048Y-11253952D01*
X18305000Y-11263476D01*
X18276429Y-11263476D01*
X18400238Y-11130143D02*
X18476429Y-11130143D01*
X18428810Y-11063476D02*
X18428810Y-11234905D01*
X18438333Y-11253952D01*
X18457381Y-11263476D01*
X18476429Y-11263476D01*
X18533571Y-11253952D02*
X18552619Y-11263476D01*
X18590714Y-11263476D01*
X18609762Y-11253952D01*
X18619286Y-11234905D01*
X18619286Y-11225381D01*
X18609762Y-11206333D01*
X18590714Y-11196809D01*
X18562143Y-11196809D01*
X18543095Y-11187286D01*
X18533571Y-11168238D01*
X18533571Y-11158714D01*
X18543095Y-11139667D01*
X18562143Y-11130143D01*
X18590714Y-11130143D01*
X18609762Y-11139667D01*
X18685952Y-11339667D02*
X18695476Y-11330143D01*
X18714524Y-11301571D01*
X18724048Y-11282524D01*
X18733571Y-11253952D01*
X18743095Y-11206333D01*
X18743095Y-11168238D01*
X18733571Y-11120619D01*
X18724048Y-11092048D01*
X18714524Y-11073000D01*
X18695476Y-11044429D01*
X18685952Y-11034905D01*
M02*
