M48
; DRILL file {KiCad (6.0.7)} date Wed Aug  3 23:31:25 2022
; FORMAT={-:-/ absolute / metric / decimal}
; #@! TF.CreationDate,2022-08-03T23:31:25+02:00
; #@! TF.GenerationSoftware,Kicad,Pcbnew,(6.0.7)
; #@! TF.FileFunction,Plated,1,2,PTH
FMAT,2
METRIC
; #@! TA.AperFunction,Plated,PTH,ComponentDrill
T1C0.900
; #@! TA.AperFunction,Plated,PTH,ComponentDrill
T2C1.000
; #@! TA.AperFunction,Plated,PTH,ComponentDrill
T3C1.600
%
G90
G05
T1
X128.565Y-84.94
X129.825Y-82.4
X131.105Y-84.94
X132.365Y-82.4
X133.645Y-84.94
X134.905Y-82.4
X136.185Y-84.94
X137.445Y-82.4
X148.565Y-84.94
X149.825Y-82.4
X151.105Y-84.94
X152.365Y-82.4
X153.645Y-84.94
X154.905Y-82.4
X156.185Y-84.94
X157.445Y-82.4
T2
X132.84Y-97.5
X135.38Y-97.5
X137.92Y-97.5
X140.46Y-97.5
X143.0Y-97.5
X145.54Y-97.5
X148.08Y-97.5
X150.62Y-97.5
X153.16Y-97.5
T3
X125.15Y-79.098
X140.85Y-79.098
X145.15Y-79.098
X160.85Y-79.098
T3
X125.15Y-72.99G85X125.15Y-71.49
G05
X140.85Y-72.99G85X140.85Y-71.49
G05
X145.15Y-72.99G85X145.15Y-71.49
G05
X160.85Y-72.99G85X160.85Y-71.49
G05
T0
M30
