%TF.GenerationSoftware,KiCad,Pcbnew,(6.0.7)*%
%TF.CreationDate,2022-08-03T23:31:26+02:00*%
%TF.ProjectId,rj45-pinheader-breakout,726a3435-2d70-4696-9e68-65616465722d,rev?*%
%TF.SameCoordinates,Original*%
%TF.FileFunction,Drillmap*%
%TF.FilePolarity,Positive*%
%FSLAX45Y45*%
G04 Gerber Fmt 4.5, Leading zero omitted, Abs format (unit mm)*
G04 Created by KiCad (PCBNEW (6.0.7)) date 2022-08-03 23:31:26*
%MOMM*%
%LPD*%
G01*
G04 APERTURE LIST*
%ADD10C,0.100000*%
%ADD11C,0.200000*%
%ADD12C,0.325000*%
G04 APERTURE END LIST*
D10*
X16300000Y-6650000D02*
X16300000Y-9850000D01*
X12450000Y-10000000D02*
X16150000Y-10000000D01*
X16300000Y-6650000D02*
G75*
G03*
X16150000Y-6500000I-150000J0D01*
G01*
X16150000Y-10000000D02*
G75*
G03*
X16300000Y-9850000I0J150000D01*
G01*
X12300000Y-9850000D02*
G75*
G03*
X12450000Y-10000000I150000J0D01*
G01*
X12450000Y-6500000D02*
G75*
G03*
X12300000Y-6650000I0J-150000D01*
G01*
X12300000Y-6650000D02*
X12300000Y-9850000D01*
X12450000Y-6500000D02*
X16150000Y-6500000D01*
D11*
D12*
X12566000Y-7442500D02*
X12891000Y-7767500D01*
X12891000Y-7442500D02*
X12566000Y-7767500D01*
X13709000Y-7442500D02*
X14034000Y-7767500D01*
X14034000Y-7442500D02*
X13709000Y-7767500D01*
X14566000Y-7442500D02*
X14891000Y-7767500D01*
X14891000Y-7442500D02*
X14566000Y-7767500D01*
X15709000Y-7442500D02*
X16034000Y-7767500D01*
X16034000Y-7442500D02*
X15709000Y-7767500D01*
D11*
X12552619Y-10315476D02*
X12552619Y-10115476D01*
X12600238Y-10115476D01*
X12628809Y-10125000D01*
X12647857Y-10144048D01*
X12657381Y-10163095D01*
X12666905Y-10201190D01*
X12666905Y-10229762D01*
X12657381Y-10267857D01*
X12647857Y-10286905D01*
X12628809Y-10305952D01*
X12600238Y-10315476D01*
X12552619Y-10315476D01*
X12752619Y-10315476D02*
X12752619Y-10182143D01*
X12752619Y-10220238D02*
X12762143Y-10201190D01*
X12771667Y-10191667D01*
X12790714Y-10182143D01*
X12809762Y-10182143D01*
X12876428Y-10315476D02*
X12876428Y-10182143D01*
X12876428Y-10115476D02*
X12866905Y-10125000D01*
X12876428Y-10134524D01*
X12885952Y-10125000D01*
X12876428Y-10115476D01*
X12876428Y-10134524D01*
X13000238Y-10315476D02*
X12981190Y-10305952D01*
X12971667Y-10286905D01*
X12971667Y-10115476D01*
X13105000Y-10315476D02*
X13085952Y-10305952D01*
X13076428Y-10286905D01*
X13076428Y-10115476D01*
X13333571Y-10315476D02*
X13333571Y-10115476D01*
X13400238Y-10258333D01*
X13466905Y-10115476D01*
X13466905Y-10315476D01*
X13647857Y-10315476D02*
X13647857Y-10210714D01*
X13638333Y-10191667D01*
X13619286Y-10182143D01*
X13581190Y-10182143D01*
X13562143Y-10191667D01*
X13647857Y-10305952D02*
X13628809Y-10315476D01*
X13581190Y-10315476D01*
X13562143Y-10305952D01*
X13552619Y-10286905D01*
X13552619Y-10267857D01*
X13562143Y-10248810D01*
X13581190Y-10239286D01*
X13628809Y-10239286D01*
X13647857Y-10229762D01*
X13743095Y-10182143D02*
X13743095Y-10382143D01*
X13743095Y-10191667D02*
X13762143Y-10182143D01*
X13800238Y-10182143D01*
X13819286Y-10191667D01*
X13828809Y-10201190D01*
X13838333Y-10220238D01*
X13838333Y-10277381D01*
X13828809Y-10296429D01*
X13819286Y-10305952D01*
X13800238Y-10315476D01*
X13762143Y-10315476D01*
X13743095Y-10305952D01*
X13924048Y-10296429D02*
X13933571Y-10305952D01*
X13924048Y-10315476D01*
X13914524Y-10305952D01*
X13924048Y-10296429D01*
X13924048Y-10315476D01*
X13924048Y-10191667D02*
X13933571Y-10201190D01*
X13924048Y-10210714D01*
X13914524Y-10201190D01*
X13924048Y-10191667D01*
X13924048Y-10210714D01*
X12095000Y-10545000D02*
X12295000Y-10745000D01*
X12295000Y-10545000D02*
X12095000Y-10745000D01*
X12533571Y-10535476D02*
X12657381Y-10535476D01*
X12590714Y-10611667D01*
X12619286Y-10611667D01*
X12638333Y-10621190D01*
X12647857Y-10630714D01*
X12657381Y-10649762D01*
X12657381Y-10697381D01*
X12647857Y-10716429D01*
X12638333Y-10725952D01*
X12619286Y-10735476D01*
X12562143Y-10735476D01*
X12543095Y-10725952D01*
X12533571Y-10716429D01*
X12743095Y-10716429D02*
X12752619Y-10725952D01*
X12743095Y-10735476D01*
X12733571Y-10725952D01*
X12743095Y-10716429D01*
X12743095Y-10735476D01*
X12828809Y-10554524D02*
X12838333Y-10545000D01*
X12857381Y-10535476D01*
X12905000Y-10535476D01*
X12924048Y-10545000D01*
X12933571Y-10554524D01*
X12943095Y-10573571D01*
X12943095Y-10592619D01*
X12933571Y-10621190D01*
X12819286Y-10735476D01*
X12943095Y-10735476D01*
X13124048Y-10535476D02*
X13028809Y-10535476D01*
X13019286Y-10630714D01*
X13028809Y-10621190D01*
X13047857Y-10611667D01*
X13095476Y-10611667D01*
X13114524Y-10621190D01*
X13124048Y-10630714D01*
X13133571Y-10649762D01*
X13133571Y-10697381D01*
X13124048Y-10716429D01*
X13114524Y-10725952D01*
X13095476Y-10735476D01*
X13047857Y-10735476D01*
X13028809Y-10725952D01*
X13019286Y-10716429D01*
X13257381Y-10535476D02*
X13276428Y-10535476D01*
X13295476Y-10545000D01*
X13305000Y-10554524D01*
X13314524Y-10573571D01*
X13324048Y-10611667D01*
X13324048Y-10659286D01*
X13314524Y-10697381D01*
X13305000Y-10716429D01*
X13295476Y-10725952D01*
X13276428Y-10735476D01*
X13257381Y-10735476D01*
X13238333Y-10725952D01*
X13228809Y-10716429D01*
X13219286Y-10697381D01*
X13209762Y-10659286D01*
X13209762Y-10611667D01*
X13219286Y-10573571D01*
X13228809Y-10554524D01*
X13238333Y-10545000D01*
X13257381Y-10535476D01*
X13409762Y-10735476D02*
X13409762Y-10602143D01*
X13409762Y-10621190D02*
X13419286Y-10611667D01*
X13438333Y-10602143D01*
X13466905Y-10602143D01*
X13485952Y-10611667D01*
X13495476Y-10630714D01*
X13495476Y-10735476D01*
X13495476Y-10630714D02*
X13505000Y-10611667D01*
X13524048Y-10602143D01*
X13552619Y-10602143D01*
X13571667Y-10611667D01*
X13581190Y-10630714D01*
X13581190Y-10735476D01*
X13676428Y-10735476D02*
X13676428Y-10602143D01*
X13676428Y-10621190D02*
X13685952Y-10611667D01*
X13705000Y-10602143D01*
X13733571Y-10602143D01*
X13752619Y-10611667D01*
X13762143Y-10630714D01*
X13762143Y-10735476D01*
X13762143Y-10630714D02*
X13771667Y-10611667D01*
X13790714Y-10602143D01*
X13819286Y-10602143D01*
X13838333Y-10611667D01*
X13847857Y-10630714D01*
X13847857Y-10735476D01*
X14238333Y-10525952D02*
X14066905Y-10783095D01*
X14495476Y-10535476D02*
X14514524Y-10535476D01*
X14533571Y-10545000D01*
X14543095Y-10554524D01*
X14552619Y-10573571D01*
X14562143Y-10611667D01*
X14562143Y-10659286D01*
X14552619Y-10697381D01*
X14543095Y-10716429D01*
X14533571Y-10725952D01*
X14514524Y-10735476D01*
X14495476Y-10735476D01*
X14476428Y-10725952D01*
X14466905Y-10716429D01*
X14457381Y-10697381D01*
X14447857Y-10659286D01*
X14447857Y-10611667D01*
X14457381Y-10573571D01*
X14466905Y-10554524D01*
X14476428Y-10545000D01*
X14495476Y-10535476D01*
X14647857Y-10716429D02*
X14657381Y-10725952D01*
X14647857Y-10735476D01*
X14638333Y-10725952D01*
X14647857Y-10716429D01*
X14647857Y-10735476D01*
X14847857Y-10735476D02*
X14733571Y-10735476D01*
X14790714Y-10735476D02*
X14790714Y-10535476D01*
X14771667Y-10564048D01*
X14752619Y-10583095D01*
X14733571Y-10592619D01*
X14924048Y-10554524D02*
X14933571Y-10545000D01*
X14952619Y-10535476D01*
X15000238Y-10535476D01*
X15019286Y-10545000D01*
X15028809Y-10554524D01*
X15038333Y-10573571D01*
X15038333Y-10592619D01*
X15028809Y-10621190D01*
X14914524Y-10735476D01*
X15038333Y-10735476D01*
X15152619Y-10621190D02*
X15133571Y-10611667D01*
X15124048Y-10602143D01*
X15114524Y-10583095D01*
X15114524Y-10573571D01*
X15124048Y-10554524D01*
X15133571Y-10545000D01*
X15152619Y-10535476D01*
X15190714Y-10535476D01*
X15209762Y-10545000D01*
X15219286Y-10554524D01*
X15228809Y-10573571D01*
X15228809Y-10583095D01*
X15219286Y-10602143D01*
X15209762Y-10611667D01*
X15190714Y-10621190D01*
X15152619Y-10621190D01*
X15133571Y-10630714D01*
X15124048Y-10640238D01*
X15114524Y-10659286D01*
X15114524Y-10697381D01*
X15124048Y-10716429D01*
X15133571Y-10725952D01*
X15152619Y-10735476D01*
X15190714Y-10735476D01*
X15209762Y-10725952D01*
X15219286Y-10716429D01*
X15228809Y-10697381D01*
X15228809Y-10659286D01*
X15219286Y-10640238D01*
X15209762Y-10630714D01*
X15190714Y-10621190D01*
X15352619Y-10535476D02*
X15371667Y-10535476D01*
X15390714Y-10545000D01*
X15400238Y-10554524D01*
X15409762Y-10573571D01*
X15419286Y-10611667D01*
X15419286Y-10659286D01*
X15409762Y-10697381D01*
X15400238Y-10716429D01*
X15390714Y-10725952D01*
X15371667Y-10735476D01*
X15352619Y-10735476D01*
X15333571Y-10725952D01*
X15324048Y-10716429D01*
X15314524Y-10697381D01*
X15305000Y-10659286D01*
X15305000Y-10611667D01*
X15314524Y-10573571D01*
X15324048Y-10554524D01*
X15333571Y-10545000D01*
X15352619Y-10535476D01*
X15495476Y-10535476D02*
X15495476Y-10573571D01*
X15571667Y-10535476D02*
X15571667Y-10573571D01*
X15866905Y-10811667D02*
X15857381Y-10802143D01*
X15838333Y-10773571D01*
X15828809Y-10754524D01*
X15819286Y-10725952D01*
X15809762Y-10678333D01*
X15809762Y-10640238D01*
X15819286Y-10592619D01*
X15828809Y-10564048D01*
X15838333Y-10545000D01*
X15857381Y-10516429D01*
X15866905Y-10506905D01*
X16028809Y-10602143D02*
X16028809Y-10735476D01*
X15981190Y-10525952D02*
X15933571Y-10668810D01*
X16057381Y-10668810D01*
X16285952Y-10735476D02*
X16285952Y-10535476D01*
X16371667Y-10735476D02*
X16371667Y-10630714D01*
X16362143Y-10611667D01*
X16343095Y-10602143D01*
X16314524Y-10602143D01*
X16295476Y-10611667D01*
X16285952Y-10621190D01*
X16495476Y-10735476D02*
X16476428Y-10725952D01*
X16466905Y-10716429D01*
X16457381Y-10697381D01*
X16457381Y-10640238D01*
X16466905Y-10621190D01*
X16476428Y-10611667D01*
X16495476Y-10602143D01*
X16524048Y-10602143D01*
X16543095Y-10611667D01*
X16552619Y-10621190D01*
X16562143Y-10640238D01*
X16562143Y-10697381D01*
X16552619Y-10716429D01*
X16543095Y-10725952D01*
X16524048Y-10735476D01*
X16495476Y-10735476D01*
X16676428Y-10735476D02*
X16657381Y-10725952D01*
X16647857Y-10706905D01*
X16647857Y-10535476D01*
X16828810Y-10725952D02*
X16809762Y-10735476D01*
X16771667Y-10735476D01*
X16752619Y-10725952D01*
X16743095Y-10706905D01*
X16743095Y-10630714D01*
X16752619Y-10611667D01*
X16771667Y-10602143D01*
X16809762Y-10602143D01*
X16828810Y-10611667D01*
X16838333Y-10630714D01*
X16838333Y-10649762D01*
X16743095Y-10668810D01*
X16914524Y-10725952D02*
X16933571Y-10735476D01*
X16971667Y-10735476D01*
X16990714Y-10725952D01*
X17000238Y-10706905D01*
X17000238Y-10697381D01*
X16990714Y-10678333D01*
X16971667Y-10668810D01*
X16943095Y-10668810D01*
X16924048Y-10659286D01*
X16914524Y-10640238D01*
X16914524Y-10630714D01*
X16924048Y-10611667D01*
X16943095Y-10602143D01*
X16971667Y-10602143D01*
X16990714Y-10611667D01*
X17066905Y-10811667D02*
X17076429Y-10802143D01*
X17095476Y-10773571D01*
X17105000Y-10754524D01*
X17114524Y-10725952D01*
X17124048Y-10678333D01*
X17124048Y-10640238D01*
X17114524Y-10592619D01*
X17105000Y-10564048D01*
X17095476Y-10545000D01*
X17076429Y-10516429D01*
X17066905Y-10506905D01*
X17428810Y-10811667D02*
X17419286Y-10802143D01*
X17400238Y-10773571D01*
X17390714Y-10754524D01*
X17381190Y-10725952D01*
X17371667Y-10678333D01*
X17371667Y-10640238D01*
X17381190Y-10592619D01*
X17390714Y-10564048D01*
X17400238Y-10545000D01*
X17419286Y-10516429D01*
X17428810Y-10506905D01*
X17505000Y-10602143D02*
X17505000Y-10735476D01*
X17505000Y-10621190D02*
X17514524Y-10611667D01*
X17533571Y-10602143D01*
X17562143Y-10602143D01*
X17581190Y-10611667D01*
X17590714Y-10630714D01*
X17590714Y-10735476D01*
X17714524Y-10735476D02*
X17695476Y-10725952D01*
X17685952Y-10716429D01*
X17676429Y-10697381D01*
X17676429Y-10640238D01*
X17685952Y-10621190D01*
X17695476Y-10611667D01*
X17714524Y-10602143D01*
X17743095Y-10602143D01*
X17762143Y-10611667D01*
X17771667Y-10621190D01*
X17781190Y-10640238D01*
X17781190Y-10697381D01*
X17771667Y-10716429D01*
X17762143Y-10725952D01*
X17743095Y-10735476D01*
X17714524Y-10735476D01*
X17838333Y-10602143D02*
X17914524Y-10602143D01*
X17866905Y-10535476D02*
X17866905Y-10706905D01*
X17876429Y-10725952D01*
X17895476Y-10735476D01*
X17914524Y-10735476D01*
X18133571Y-10602143D02*
X18133571Y-10802143D01*
X18133571Y-10611667D02*
X18152619Y-10602143D01*
X18190714Y-10602143D01*
X18209762Y-10611667D01*
X18219286Y-10621190D01*
X18228810Y-10640238D01*
X18228810Y-10697381D01*
X18219286Y-10716429D01*
X18209762Y-10725952D01*
X18190714Y-10735476D01*
X18152619Y-10735476D01*
X18133571Y-10725952D01*
X18343095Y-10735476D02*
X18324048Y-10725952D01*
X18314524Y-10706905D01*
X18314524Y-10535476D01*
X18505000Y-10735476D02*
X18505000Y-10630714D01*
X18495476Y-10611667D01*
X18476429Y-10602143D01*
X18438333Y-10602143D01*
X18419286Y-10611667D01*
X18505000Y-10725952D02*
X18485952Y-10735476D01*
X18438333Y-10735476D01*
X18419286Y-10725952D01*
X18409762Y-10706905D01*
X18409762Y-10687857D01*
X18419286Y-10668810D01*
X18438333Y-10659286D01*
X18485952Y-10659286D01*
X18505000Y-10649762D01*
X18571667Y-10602143D02*
X18647857Y-10602143D01*
X18600238Y-10535476D02*
X18600238Y-10706905D01*
X18609762Y-10725952D01*
X18628810Y-10735476D01*
X18647857Y-10735476D01*
X18790714Y-10725952D02*
X18771667Y-10735476D01*
X18733571Y-10735476D01*
X18714524Y-10725952D01*
X18705000Y-10706905D01*
X18705000Y-10630714D01*
X18714524Y-10611667D01*
X18733571Y-10602143D01*
X18771667Y-10602143D01*
X18790714Y-10611667D01*
X18800238Y-10630714D01*
X18800238Y-10649762D01*
X18705000Y-10668810D01*
X18971667Y-10735476D02*
X18971667Y-10535476D01*
X18971667Y-10725952D02*
X18952619Y-10735476D01*
X18914524Y-10735476D01*
X18895476Y-10725952D01*
X18885952Y-10716429D01*
X18876429Y-10697381D01*
X18876429Y-10640238D01*
X18885952Y-10621190D01*
X18895476Y-10611667D01*
X18914524Y-10602143D01*
X18952619Y-10602143D01*
X18971667Y-10611667D01*
X19047857Y-10811667D02*
X19057381Y-10802143D01*
X19076429Y-10773571D01*
X19085952Y-10754524D01*
X19095476Y-10725952D01*
X19105000Y-10678333D01*
X19105000Y-10640238D01*
X19095476Y-10592619D01*
X19085952Y-10564048D01*
X19076429Y-10545000D01*
X19057381Y-10516429D01*
X19047857Y-10506905D01*
M02*
